<svg width="24" height="24" viewBox="0 0 24 24" fill="none" xmlns="http://www.w3.org/2000/svg">
<path fill-rule="evenodd" clip-rule="evenodd" d="M18.6077 5.21413C18.1889 4.75184 17.6171 4.37608 16.678 3.94844C16.301 3.77679 16.1346 3.33205 16.3062 2.95507C16.4779 2.5781 16.9226 2.41165 17.2996 2.5833C18.3202 3.04803 19.1029 3.52655 19.7194 4.20707C20.3365 4.8883 20.7355 5.71493 21.092 6.78351C21.2231 7.17643 21.0109 7.60123 20.6179 7.73233C20.225 7.86342 19.8002 7.65117 19.6691 7.25825C19.3429 6.28041 19.0259 5.67571 18.6077 5.21413Z" fill="#F77B08"/>
<path fill-rule="evenodd" clip-rule="evenodd" d="M16.1986 7.45825C16.0387 7.28167 15.8055 7.11948 15.3563 6.91493C14.9793 6.74328 14.8129 6.29854 14.9845 5.92156C15.1562 5.54459 15.6009 5.37814 15.9779 5.54979C16.5086 5.79143 16.9527 6.05638 17.3103 6.4512C17.6686 6.84673 17.8886 7.31552 18.0744 7.8725C18.2055 8.26542 17.9933 8.69022 17.6003 8.82131C17.2074 8.95241 16.7826 8.74016 16.6515 8.34724C16.496 7.881 16.358 7.63413 16.1986 7.45825Z" fill="#F77B08"/>
<path fill-rule="evenodd" clip-rule="evenodd" d="M8.74121 5.07249C8.61022 4.18573 7.91679 3.56039 7.20653 3.58013L4.76025 3.64809C3.99981 3.66921 3.47587 4.33824 3.61639 5.01926C4.56507 9.61675 6.31376 13.0358 8.84085 15.51C11.3685 17.9847 14.7333 19.5713 19.0142 20.4011C19.251 20.447 19.5049 20.4097 19.7314 20.2927C20.1101 20.0971 20.351 19.7097 20.359 19.2836L20.4078 16.6804C20.4196 16.051 19.9449 15.4864 19.2596 15.3699C18.4768 15.2369 17.7628 15.0633 17.0112 14.7909C16.4419 14.5846 15.8553 14.6951 15.4898 15.0503L14.3794 16.129C14.1325 16.3689 13.7539 16.4099 13.4613 16.2283C10.8438 14.6037 9.36493 13.1567 7.75007 10.4577C7.56687 10.1515 7.62476 9.75865 7.88849 9.51831L8.81418 8.6747C9.24433 8.2827 9.38755 7.55962 9.14883 6.82915C8.9599 6.25105 8.82709 5.65389 8.74121 5.07249ZM7.16488 2.08071C8.81295 2.03492 10.0113 3.40613 10.2251 4.85329C10.3003 5.36238 10.4154 5.87584 10.5746 6.36319C10.9352 7.46652 10.8203 8.8759 9.82454 9.78338L9.35777 10.2088C10.615 12.1947 11.8083 13.3709 13.759 14.6405L14.4445 13.9744C15.2886 13.1544 16.506 13.0124 17.5223 13.3807C18.173 13.6165 18.7973 13.7698 19.5109 13.8911C20.8622 14.1208 21.9345 15.2726 21.9076 16.7086L21.8587 19.3117C21.8404 20.2887 21.2879 21.177 20.4197 21.6254C19.906 21.8908 19.31 21.9863 18.7288 21.8737C14.2397 21.0036 10.5807 19.3126 7.79147 16.5818C5.00175 13.8505 3.14066 10.1362 2.14734 5.3224C1.80511 3.66384 3.0911 2.19388 4.7186 2.14867L7.16488 2.08071Z" fill="#F77B08"/>
</svg>
