<svg width="22" height="17" viewBox="0 0 22 17" fill="none" xmlns="http://www.w3.org/2000/svg">
<path fill-rule="evenodd" clip-rule="evenodd" d="M0.25 3C0.25 1.48122 1.48122 0.25 3 0.25H19C20.5188 0.25 21.75 1.48122 21.75 3V14C21.75 15.5188 20.5188 16.75 19 16.75H3C1.48122 16.75 0.25 15.5188 0.25 14V3ZM3 1.75C2.30964 1.75 1.75 2.30964 1.75 3V14C1.75 14.6904 2.30964 15.25 3 15.25H19C19.6904 15.25 20.25 14.6904 20.25 14V3C20.25 2.30964 19.6904 1.75 19 1.75H3ZM4.82571 5.49304C5.00708 5.12064 5.45599 4.96578 5.82839 5.14714L10.4527 7.39924C10.7982 7.56749 11.2018 7.56749 11.5473 7.39924L16.1716 5.14714C16.544 4.96578 16.9929 5.12064 17.1743 5.49304C17.3556 5.86544 17.2008 6.31435 16.8284 6.49571L12.2041 8.74781C11.444 9.11796 10.556 9.11797 9.79592 8.74781L5.17161 6.49571C4.79922 6.31435 4.64435 5.86544 4.82571 5.49304Z" fill="#A1B1CF"/>
</svg>
