<svg width="20" height="20" viewBox="0 0 20 20" fill="none" xmlns="http://www.w3.org/2000/svg">
<path d="M17.623 18.9898H2.37698C2.10096 18.9898 1.87767 18.7801 1.87767 18.521V7.60447C1.87767 7.34531 2.10096 7.13566 2.37698 7.13566H17.623C17.899 7.13566 18.1223 7.34531 18.1223 7.60447V18.521C18.1223 18.7801 17.899 18.9898 17.623 18.9898Z" fill="#E8815D"/>
<path d="M18.5007 8.80123H1.49931C1.22329 8.80123 1 8.59158 1 8.33243V4.6373C1 4.37815 1.22329 4.1685 1.49931 4.1685H18.5007C18.7767 4.1685 19 4.37815 19 4.6373V8.33243C19 8.59158 18.7767 8.80123 18.5007 8.80123Z" fill="#F69B76"/>
<path d="M10.4869 4.50627H9.86664C9.35493 4.50627 8.93625 4.11608 8.93625 3.63272V3.45218C8.93625 2.97173 9.35183 2.57863 9.86664 2.57863H10.4869C10.9986 2.57863 11.4173 2.96882 11.4173 3.45218V3.63272C11.4173 4.11608 11.0017 4.50627 10.4869 4.50627Z" fill="#D83945"/>
<path d="M12.1709 8.80123H7.81978V18.9898H12.1709V8.80123Z" fill="#D83945"/>
<path d="M12.5586 4.1685H7.43212V8.80123H12.5586V4.1685Z" fill="#EA3D53"/>
<path d="M9.61234 2.99211L6.84287 1.31198C5.47519 0.482107 3.67023 1.40516 3.67023 2.93388C3.67023 3.61525 4.25948 4.1685 4.98518 4.1685H9.31771C9.61854 4.1685 9.86354 3.93846 9.86354 3.65601V3.42015C9.86044 3.24835 9.7674 3.08529 9.61234 2.99211ZM8.02446 3.6036H5.62715C5.33563 3.6036 5.09993 3.3823 5.09993 3.10859C5.09993 2.21174 6.15748 1.67305 6.95761 2.15933L8.25706 2.94844C8.39972 3.03288 8.46795 3.19885 8.41213 3.359C8.35941 3.51042 8.19504 3.6036 8.02446 3.6036Z" fill="#D83945"/>
<path d="M10.4032 3.42331V3.65917C10.4032 3.94161 10.6482 4.17165 10.949 4.17165H15.2815C16.0072 4.17165 16.5965 3.6184 16.5965 2.93703C16.5965 1.40831 14.7915 0.485261 13.4238 1.31514L10.6513 2.99236C10.4962 3.08553 10.4032 3.2486 10.4032 3.42331ZM11.8515 3.35925C11.7988 3.1991 11.867 3.03312 12.0065 2.94868L13.306 2.15957C14.1061 1.67329 15.1637 2.21489 15.1637 3.10883C15.1637 3.38254 14.928 3.60384 14.6365 3.60384H12.2391C12.0686 3.60384 11.9011 3.51066 11.8515 3.35925Z" fill="#D83945"/>
</svg>
