<svg width="20" height="22" viewBox="0 0 20 22" fill="none" xmlns="http://www.w3.org/2000/svg">
<path fill-rule="evenodd" clip-rule="evenodd" d="M9.99984 6.94C8.69093 6.94 7.62984 8.00109 7.62984 9.31C7.62984 10.6189 8.69093 11.68 9.99984 11.68C11.3088 11.68 12.3698 10.6189 12.3698 9.31C12.3698 8.00109 11.3088 6.94 9.99984 6.94ZM6.12984 9.31C6.12984 7.17266 7.8625 5.44 9.99984 5.44C12.1372 5.44 13.8698 7.17266 13.8698 9.31C13.8698 11.4473 12.1372 13.18 9.99984 13.18C7.8625 13.18 6.12984 11.4473 6.12984 9.31Z" fill="#A1B1CF"/>
<path fill-rule="evenodd" clip-rule="evenodd" d="M10.0028 1.75C6.58606 1.74769 3.24419 3.73032 2.35097 7.65591C1.29391 12.3261 4.18763 16.3762 6.90974 18.9997C8.64024 20.661 11.3602 20.659 13.0787 19.0004L13.0801 18.999C15.812 16.3756 18.7052 12.3354 17.6481 7.6656C16.7595 3.73974 13.4197 1.75231 10.0028 1.75ZM19.111 7.33441C18.0396 2.60029 13.9843 0.252693 10.0038 0.250002C6.02317 0.247312 1.96516 2.58953 0.888233 7.32364C-0.35447 12.8131 3.07134 17.3836 5.86909 20.08L5.87004 20.0809C8.17943 22.2989 11.8187 22.3008 14.12 20.08C16.9279 17.3834 20.3537 12.8239 19.111 7.33441Z" fill="#A1B1CF"/>
</svg>
