<svg width="22" height="22" viewBox="0 0 22 22" fill="none" xmlns="http://www.w3.org/2000/svg">
<path d="M10.7208 0C4.8333 0 0 4.5894 0 10.2741C0 13.3027 1.40264 15.9937 3.5736 17.868V22L7.53852 20.0175C8.54627 20.3213 9.60049 20.5482 10.7208 20.5482C16.6083 20.5482 21.4416 15.9588 21.4416 10.2741C21.4416 4.5894 16.6083 0 10.7208 0ZM10.7208 1.7868C15.6872 1.7868 19.6548 5.59805 19.6548 10.2741C19.6548 14.9502 15.6872 18.7614 10.7208 18.7614C9.6532 18.7614 8.63383 18.5586 7.67789 18.2307L7.31517 18.1191L5.36041 19.0964V17.0863L5.02538 16.8067C3.04292 15.2441 1.7868 12.9025 1.7868 10.2741C1.7868 5.59805 5.7544 1.7868 10.7208 1.7868ZM9.71574 7.45454L4.32763 13.15L9.15736 10.4698L11.7259 13.2339L17.0586 7.45365L12.3397 10.107L9.71574 7.45454Z" fill="#3F70FE"/>
</svg>
