<svg width="20" height="20" viewBox="0 0 20 20" fill="none" xmlns="http://www.w3.org/2000/svg">
<path fill-rule="evenodd" clip-rule="evenodd" d="M10.0007 8.75C11.6576 8.75 13.0007 7.40685 13.0007 5.75C13.0007 4.09315 11.6576 2.75 10.0007 2.75C8.34385 2.75 7.00071 4.09315 7.00071 5.75C7.00071 7.40685 8.34385 8.75 10.0007 8.75ZM10.0007 9.75C12.2098 9.75 14.0007 7.95914 14.0007 5.75C14.0007 3.54086 12.2098 1.75 10.0007 1.75C7.79157 1.75 6.00071 3.54086 6.00071 5.75C6.00071 7.95914 7.79157 9.75 10.0007 9.75Z" fill="black"/>
<path fill-rule="evenodd" clip-rule="evenodd" d="M5.94656 11.0236C6.07154 11.2698 5.97324 11.5708 5.727 11.6957L4.18207 12.4799C3.8684 12.6391 3.62065 12.9035 3.48214 13.2268L2.95288 14.4624C2.38758 15.7821 3.35564 17.2499 4.79132 17.2499H15.2101C16.6458 17.2499 17.6138 15.7821 17.0485 14.4624L16.5193 13.2268C16.3808 12.9035 16.133 12.6391 15.8193 12.4799L14.2744 11.6957C14.0282 11.5708 13.9299 11.2698 14.0548 11.0236C14.1798 10.7773 14.4808 10.679 14.727 10.804L16.2719 11.5882C16.7947 11.8535 17.2076 12.2941 17.4385 12.8331L17.9677 14.0686C18.8157 16.0482 17.3636 18.2499 15.2101 18.2499H4.79132C2.6378 18.2499 1.18571 16.0482 2.03367 14.0686L2.56293 12.8331C2.79378 12.2942 3.20668 11.8535 3.72948 11.5882L5.27441 10.804C5.52065 10.679 5.82158 10.7773 5.94656 11.0236Z" fill="black"/>
</svg>