<svg width="11" height="11" viewBox="0 0 11 11" fill="none" xmlns="http://www.w3.org/2000/svg"><path d="M7.68141 3.6147C7.89421 3.43872 8.20938 3.46857 8.38537 3.68137C8.54179 3.87052 8.53559 4.14057 8.38283 4.32184L8.3187 4.38532L4.40526 7.62168L2.72378 6.50696C2.49362 6.35438 2.43073 6.04411 2.58331 5.81395C2.71894 5.60936 2.97916 5.53694 3.19697 5.63054L3.27633 5.67348L4.33905 6.37801L7.68141 3.6147Z" fill="#00BC52"></path><path fill-rule="evenodd" clip-rule="evenodd" d="M11 5.5C11 2.46243 8.53757 0 5.5 0C2.46243 0 0 2.46243 0 5.5C0 8.53757 2.46243 11 5.5 11C8.53757 11 11 8.53757 11 5.5ZM1 5.5C1 3.01472 3.01472 1 5.5 1C7.98528 1 10 3.01472 10 5.5C10 7.98528 7.98528 10 5.5 10C3.01472 10 1 7.98528 1 5.5Z" fill="#00BC52"></path></svg>