<svg width="20" height="20" viewBox="0 0 20 20" fill="none" xmlns="http://www.w3.org/2000/svg">
<path fill-rule="evenodd" clip-rule="evenodd" d="M4.75 9.75C4.19772 9.75 3.75 10.1977 3.75 10.75V16C3.75 16.5523 4.19772 17 4.75 17H15.25C15.8023 17 16.25 16.5523 16.25 16V10.75C16.25 10.1977 15.8023 9.75 15.25 9.75H4.75ZM2.75 10.75C2.75 9.64543 3.64543 8.75 4.75 8.75H15.25C16.3546 8.75 17.25 9.64543 17.25 10.75V16C17.25 17.1046 16.3546 18 15.25 18H4.75C3.64543 18 2.75 17.1046 2.75 16V10.75Z" fill="black"/>
<path fill-rule="evenodd" clip-rule="evenodd" d="M10 3C9.13805 3 8.3114 3.34241 7.7019 3.9519C7.09241 4.5614 6.75 5.38805 6.75 6.25V9.25C6.75 9.52614 6.52614 9.75 6.25 9.75C5.97386 9.75 5.75 9.52614 5.75 9.25V6.25C5.75 5.12283 6.19777 4.04183 6.9948 3.2448C7.79183 2.44777 8.87283 2 10 2C11.1272 2 12.2082 2.44777 13.0052 3.2448C13.8022 4.04183 14.25 5.12283 14.25 6.25V9.25C14.25 9.52614 14.0261 9.75 13.75 9.75C13.4739 9.75 13.25 9.52614 13.25 9.25V6.25C13.25 5.38805 12.9076 4.5614 12.2981 3.9519C11.6886 3.34241 10.862 3 10 3Z" fill="black"/>
<path fill-rule="evenodd" clip-rule="evenodd" d="M10 12.3375C10.2761 12.3375 10.5 12.5614 10.5 12.8375V14.5875C10.5 14.8636 10.2761 15.0875 10 15.0875C9.72386 15.0875 9.5 14.8636 9.5 14.5875V12.8375C9.5 12.5614 9.72386 12.3375 10 12.3375Z" fill="black"/>
<path d="M11 12.5875C11 13.1398 10.5523 13.5875 10 13.5875C9.44772 13.5875 9 13.1398 9 12.5875C9 12.0352 9.44772 11.5875 10 11.5875C10.5523 11.5875 11 12.0352 11 12.5875Z" fill="black"/>
</svg>
