<svg width="20" height="20" viewBox="0 0 20 20" fill="none" xmlns="http://www.w3.org/2000/svg">
<path fill-rule="evenodd" clip-rule="evenodd" d="M16.6077 3.21413C16.1889 2.75184 15.6171 2.37608 14.678 1.94844C14.301 1.77679 14.1346 1.33205 14.3062 0.955074C14.4779 0.578099 14.9226 0.41165 15.2996 0.583299C16.3202 1.04803 17.1029 1.52655 17.7194 2.20707C18.3365 2.8883 18.7355 3.71493 19.092 4.78351C19.2231 5.17643 19.0109 5.60123 18.6179 5.73233C18.225 5.86342 17.8002 5.65117 17.6691 5.25825C17.3429 4.28041 17.0259 3.67571 16.6077 3.21413Z" fill="#A1B1CF"/>
<path fill-rule="evenodd" clip-rule="evenodd" d="M14.1986 5.45825C14.0387 5.28167 13.8055 5.11948 13.3563 4.91493C12.9793 4.74328 12.8129 4.29854 12.9845 3.92156C13.1562 3.54459 13.6009 3.37814 13.9779 3.54979C14.5086 3.79143 14.9527 4.05638 15.3103 4.4512C15.6686 4.84673 15.8886 5.31552 16.0744 5.8725C16.2055 6.26542 15.9933 6.69022 15.6003 6.82131C15.2074 6.95241 14.7826 6.74016 14.6515 6.34724C14.496 5.881 14.358 5.63413 14.1986 5.45825Z" fill="#A1B1CF"/>
<path fill-rule="evenodd" clip-rule="evenodd" d="M6.74121 3.07249C6.61022 2.18573 5.91679 1.56039 5.20653 1.58013L2.76025 1.64809C1.99981 1.66921 1.47587 2.33824 1.61639 3.01926C2.56507 7.61675 4.31376 11.0358 6.84085 13.51C9.36847 15.9847 12.7333 17.5713 17.0142 18.4011C17.251 18.447 17.5049 18.4097 17.7314 18.2927C18.1101 18.0971 18.351 17.7097 18.359 17.2836L18.4078 14.6804C18.4196 14.051 17.9449 13.4864 17.2596 13.3699C16.4768 13.2369 15.7628 13.0633 15.0112 12.7909C14.4419 12.5846 13.8553 12.6951 13.4898 13.0503L12.3794 14.129C12.1325 14.3689 11.7539 14.4099 11.4613 14.2283C8.84384 12.6037 7.36493 11.1567 5.75007 8.45772C5.56687 8.15153 5.62476 7.75865 5.88849 7.51831L6.81418 6.6747C7.24433 6.2827 7.38755 5.55962 7.14883 4.82915C6.9599 4.25105 6.82709 3.65389 6.74121 3.07249ZM5.16488 0.0807051C6.81295 0.03492 8.01134 1.40613 8.22511 2.85329C8.30031 3.36238 8.41535 3.87584 8.57462 4.36319C8.93519 5.46652 8.82033 6.8759 7.82454 7.78338L7.35777 8.20877C8.615 10.1947 9.80831 11.3709 11.759 12.6405L12.4445 11.9744C13.2886 11.1544 14.506 11.0124 15.5223 11.3807C16.173 11.6165 16.7973 11.7698 17.5109 11.8911C18.8622 12.1208 19.9345 13.2726 19.9076 14.7086L19.8587 17.3117C19.8404 18.2887 19.2879 19.177 18.4197 19.6254C17.906 19.8908 17.31 19.9863 16.7288 19.8737C12.2397 19.0036 8.58065 17.3126 5.79147 14.5818C3.00175 11.8505 1.14066 8.13622 0.147343 3.3224C-0.194894 1.66384 1.0911 0.193879 2.7186 0.148665L5.16488 0.0807051Z" fill="#A1B1CF"/>
</svg>
