<svg width="20" height="20" viewBox="0 0 20 20" fill="none" xmlns="http://www.w3.org/2000/svg">
<path fill-rule="evenodd" clip-rule="evenodd" d="M6.78604 3.65199C6.56729 3.49025 6.30139 3.40493 6.02932 3.40921L6.02144 3.40934L3.60643 3.40927C3.44721 3.40895 3.28932 3.4381 3.14072 3.49526C2.99568 3.55232 2.86952 3.63388 2.77018 3.73057L2.76776 3.73293C2.66836 3.82839 2.59568 3.9394 2.55188 4.05475L2.55123 4.05646C2.50864 4.16741 2.49232 4.28669 2.50351 4.40496C2.75861 6.51466 3.56979 8.54603 4.87975 10.3337L4.88261 10.3376C6.07279 11.9952 7.66454 13.4052 9.54832 14.4633L9.55235 14.4656C11.5762 15.6272 13.8837 16.3542 16.2898 16.5871C16.4493 16.5993 16.6096 16.5821 16.7628 16.5364C16.9154 16.4902 17.0515 16.4179 17.1632 16.3271C17.2752 16.2362 17.3605 16.1292 17.417 16.0161C17.4729 15.9012 17.5004 15.7806 17.5004 15.6613V13.5263L17.5006 13.512C17.5066 13.3054 17.4269 13.093 17.2585 12.9173C17.0877 12.7392 16.8406 12.6137 16.5553 12.5776C15.7519 12.4837 14.9606 12.3096 14.1987 12.0581L14.1973 12.0576C13.9918 11.9891 13.7651 11.974 13.5468 12.0147C13.3295 12.0559 13.1366 12.1501 12.9883 12.279C12.9879 12.2794 12.9875 12.2797 12.9871 12.2801L11.9677 13.1818C11.8146 13.3172 11.5944 13.3458 11.4118 13.254C9.32328 12.2035 7.58528 10.6698 6.38968 8.80739C6.25655 8.60001 6.29437 8.32654 6.4788 8.16308L7.49815 7.25966C7.49824 7.25959 7.49806 7.25974 7.49815 7.25966C7.64337 7.13042 7.73563 6.97409 7.77431 6.81331L7.77463 6.81201C7.81361 6.6519 7.80011 6.48565 7.73303 6.32727C7.44402 5.64337 7.24457 4.93224 7.13628 4.2085C7.10379 4.00583 6.98638 3.80507 6.78604 3.65199ZM6.01775 2.40927C6.50945 2.40245 6.98978 2.55761 7.3846 2.8509L7.38903 2.85419C7.77879 3.15046 8.04853 3.57429 8.12432 4.05429L8.12497 4.05842C8.22077 4.69986 8.39733 5.33028 8.654 5.93764C8.8027 6.28894 8.8372 6.67428 8.74643 7.04781C8.65706 7.4187 8.45121 7.75031 8.16273 8.00688L7.469 8.62172C8.48967 10.0796 9.89109 11.3092 11.5623 12.2054L12.3298 11.5264C12.6192 11.2741 12.9776 11.1047 13.3614 11.032L13.3627 11.0318C13.7438 10.9606 14.1425 10.9855 14.5125 11.1086C15.2098 11.3388 15.9356 11.4985 16.6734 11.5846L16.6775 11.5851C17.1754 11.6474 17.6395 11.8697 17.9803 12.2252C18.3201 12.5797 18.5123 13.0442 18.5004 13.5328V15.6613C18.5004 15.9374 18.4362 16.2083 18.3146 16.4569L18.3131 16.4599C18.1897 16.7082 18.0112 16.9268 17.7936 17.1034C17.5756 17.2805 17.322 17.4121 17.0509 17.4939L17.0496 17.4943C16.7766 17.5759 16.4909 17.6062 16.207 17.5837L16.1984 17.583C13.655 17.3375 11.2089 16.569 9.05653 15.3341C7.05393 14.2088 5.35093 12.7038 4.07171 10.9229C2.66363 9.0006 1.78558 6.80664 1.51003 4.51907L1.50884 4.50923C1.48125 4.23438 1.51846 3.95687 1.61732 3.69894C1.71535 3.44115 1.87212 3.2069 2.07391 3.0128C2.27404 2.81833 2.51499 2.66649 2.7769 2.56379L2.77945 2.56279C3.04373 2.46081 3.32465 2.40876 3.60792 2.40927C3.6081 2.40927 3.60775 2.40927 3.60792 2.40927H6.01775ZM6.01775 2.40927C6.01635 2.40929 6.01496 2.40931 6.01356 2.40934L6.02144 2.90927V2.40927H6.01775Z" fill="black"/>
</svg>
