<svg width="24" height="22" viewBox="0 0 24 22" fill="none" xmlns="http://www.w3.org/2000/svg">
<path fill-rule="evenodd" clip-rule="evenodd" d="M5.73792 13.5079C5.78439 13.5233 5.83217 13.5343 5.88067 13.5411C6.18664 14.2535 6.49089 14.9666 6.79341 15.6804C7.33738 16.9649 7.88568 18.2879 8.00572 18.6683C8.15604 19.1364 8.31393 19.4548 8.48696 19.6728C8.57672 19.7839 8.67946 19.8823 8.80058 19.9571C8.86368 19.9961 8.93119 20.0276 9.00173 20.0511C9.34779 20.1793 9.66358 20.1259 9.86148 20.0607C9.97762 20.0215 10.0881 19.9677 10.1902 19.9004L10.1957 19.8983L13.2518 18.0154L16.7828 20.6891C16.8347 20.7286 16.8909 20.7617 16.9515 20.7884C17.3754 20.9701 17.7863 21.0342 18.1735 20.9829C18.5585 20.9295 18.8645 20.7703 19.0927 20.5897C19.3547 20.381 19.5636 20.1146 19.7027 19.8117L19.7124 19.7882L19.7156 19.7797L19.7178 19.7754V19.7733L19.7189 19.7722C19.7377 19.7262 19.7522 19.6786 19.7621 19.6301L22.9849 3.57408C22.995 3.52269 23.0001 3.47043 23 3.41807C23 2.94787 22.8205 2.50012 22.3998 2.22976C22.0386 1.99787 21.6374 1.98719 21.3832 2.00642C21.1107 2.02779 20.8576 2.09405 20.6879 2.14748C20.5928 2.17725 20.499 2.21076 20.4067 2.24793L20.3948 2.25327L2.31946 9.25913L2.3173 9.2602C2.25614 9.28242 2.1959 9.30702 2.1367 9.33393C1.99336 9.39761 1.85587 9.4734 1.72575 9.56048C1.48026 9.72611 0.914661 10.1813 1.01091 10.9337C1.08661 11.5321 1.50189 11.9007 1.75603 12.0781C1.89445 12.1754 2.02639 12.2448 2.12372 12.2908C2.16698 12.3122 2.25998 12.3485 2.3 12.3656L2.31081 12.3688L5.73792 13.5079ZM21.0274 3.72796H21.0253C21.016 3.73205 21.0066 3.73597 20.9972 3.73972L2.9002 10.7552C2.89089 10.7589 2.88152 10.7625 2.87208 10.7659L2.86127 10.7691C2.82821 10.7819 2.79573 10.7962 2.76394 10.8118C2.79404 10.8289 2.82509 10.8442 2.85694 10.8578L6.25485 11.9884C6.31557 12.0086 6.37366 12.0359 6.42788 12.0696L17.6501 5.57774L17.6609 5.5724C17.7045 5.54622 17.7492 5.52198 17.795 5.49973C17.8729 5.46019 17.9972 5.40249 18.1378 5.35974C18.2351 5.32982 18.5239 5.2454 18.8353 5.34478C19.0005 5.39624 19.1478 5.49256 19.2602 5.62275C19.3727 5.75294 19.4458 5.91176 19.4712 6.08106C19.5115 6.22933 19.5126 6.38533 19.4745 6.53415C19.3988 6.82802 19.1911 7.05671 19.0019 7.23196C18.8397 7.38157 16.7352 9.38629 14.6599 11.3654L11.834 14.0583L11.3312 14.5392L17.6814 19.3501C17.7671 19.3856 17.8602 19.4003 17.9529 19.3928C17.9995 19.3866 18.0434 19.3673 18.0794 19.3373C18.1233 19.3007 18.1609 19.2574 18.1908 19.209L18.193 19.208L21.3183 3.63499C21.2199 3.6584 21.1234 3.68912 21.0296 3.7269L21.0274 3.72796ZM11.8773 16.9724L10.6098 16.0128L10.3027 17.9416L11.8773 16.9724ZM9.44729 14.1085L10.7072 12.9063L13.533 10.2113L14.5852 9.2089L7.53421 13.2878L7.57206 13.3754C8.01675 14.4135 8.45655 15.4537 8.89142 16.4958L9.19747 14.5723C9.22517 14.3939 9.31323 14.2311 9.44729 14.1085Z" fill="#27A4E1"/>
</svg>
