<svg width="22" height="22" viewBox="0 0 22 22" fill="none" xmlns="http://www.w3.org/2000/svg">
<path fill-rule="evenodd" clip-rule="evenodd" d="M0.25 6C0.25 2.82436 2.82436 0.25 6 0.25H16C19.1756 0.25 21.75 2.82436 21.75 6V16C21.75 19.1756 19.1756 21.75 16 21.75H6C2.82436 21.75 0.25 19.1756 0.25 16V6ZM6 1.75C3.65279 1.75 1.75 3.65279 1.75 6V16C1.75 18.3472 3.65279 20.25 6 20.25H16C18.3472 20.25 20.25 18.3472 20.25 16V6C20.25 3.65279 18.3472 1.75 16 1.75H6ZM10 5.25C10.4142 5.25 10.75 5.58579 10.75 6V11C10.75 11.1381 10.8619 11.25 11 11.25H16.5C16.9142 11.25 17.25 11.5858 17.25 12C17.25 12.4142 16.9142 12.75 16.5 12.75H11C10.0335 12.75 9.25 11.9665 9.25 11V6C9.25 5.58579 9.58579 5.25 10 5.25Z" fill="#A1B1CF"/>
</svg>
