<svg width="20" height="22" viewBox="0 0 20 22" fill="none" xmlns="http://www.w3.org/2000/svg">
<path d="M5.92282 4.5644C5.73021 4.53603 5.53379 4.57526 5.36628 4.67559H5.35177C4.96312 4.90635 4.61282 5.19691 4.31433 5.53886C4.0656 5.82941 3.93086 6.12311 3.89563 6.40633C3.8749 6.57415 3.88941 6.74408 3.93812 6.90457L3.95677 6.91506C4.2366 7.74686 4.60141 8.5472 5.04707 9.30033C5.6217 10.3582 6.32884 11.3365 7.15096 12.2111L7.17583 12.2468L7.21521 12.2762L7.23905 12.3045L7.26807 12.3296C8.13525 13.1642 9.10417 13.8833 10.1513 14.4695C11.3484 15.1292 12.0749 15.4408 12.5112 15.5708V15.5771C12.6387 15.617 12.7548 15.6348 12.8719 15.6348C13.2435 15.607 13.5952 15.4542 13.871 15.2006C14.2078 14.8985 14.4928 14.5429 14.7146 14.1474V14.1401C14.9229 13.7415 14.8524 13.366 14.5519 13.1111C13.9482 12.5772 13.2954 12.103 12.6024 11.695C12.1381 11.4402 11.6665 11.5943 11.4758 11.8524L11.0685 12.3727C10.8592 12.6307 10.4799 12.595 10.4799 12.595L10.4695 12.6013C7.6391 11.8702 6.88357 8.96992 6.88357 8.96992C6.88357 8.96992 6.84833 8.57552 7.11054 8.37412L7.62044 7.95875C7.86503 7.75735 8.035 7.28113 7.7728 6.81121C7.37234 6.10923 6.90475 5.44873 6.37677 4.83922C6.26161 4.69577 6.10012 4.59808 5.92075 4.56335L5.92282 4.5644ZM10.7058 3.30358C10.5684 3.30358 10.4366 3.35884 10.3394 3.4572C10.2422 3.55555 10.1876 3.68895 10.1876 3.82805C10.1876 3.96715 10.2422 4.10055 10.3394 4.1989C10.4366 4.29726 10.5684 4.35252 10.7058 4.35252C12.0158 4.35252 13.104 4.78572 13.9653 5.61648C14.4078 6.07067 14.7529 6.60877 14.9789 7.19827C15.2058 7.78882 15.3095 8.41923 15.2825 9.05068C15.2768 9.18978 15.3258 9.3255 15.4189 9.42799C15.512 9.53048 15.6415 9.59134 15.779 9.59718C15.9164 9.60302 16.0505 9.55337 16.1518 9.45914C16.253 9.36491 16.3132 9.23384 16.3189 9.09474C16.3511 8.31799 16.2237 7.54293 15.9448 6.81855C15.6647 6.09074 15.24 5.42884 14.697 4.87384L14.6866 4.86335C13.6181 3.83015 12.2666 3.30358 10.7058 3.30358Z" fill="#665CA7"/>
<path d="M10.6695 5.02803C10.5321 5.02803 10.4003 5.08328 10.3031 5.18164C10.2059 5.28 10.1513 5.4134 10.1513 5.55249C10.1513 5.69159 10.2059 5.82499 10.3031 5.92335C10.4003 6.0217 10.5321 6.07696 10.6695 6.07696H10.6872C11.6323 6.14514 12.3205 6.46402 12.8024 6.98743C13.2968 7.52658 13.5528 8.19685 13.5331 9.02551C13.5299 9.16461 13.5815 9.29928 13.6765 9.3999C13.7714 9.50051 13.9019 9.55884 14.0394 9.56204C14.1768 9.56524 14.3099 9.51305 14.4093 9.41695C14.5087 9.32086 14.5663 9.18873 14.5695 9.04963C14.5944 7.96189 14.2482 7.0231 13.5621 6.27416V6.27206C12.8605 5.51054 11.8977 5.10775 10.739 5.02908L10.7214 5.02698L10.6695 5.02803Z" fill="#665CA7"/>
<path d="M10.6498 6.78499C10.5805 6.7788 10.5106 6.78681 10.4444 6.80855C10.3782 6.83029 10.317 6.86532 10.2644 6.91153C10.2119 6.95775 10.169 7.0142 10.1385 7.07754C10.108 7.14087 10.0904 7.20977 10.0868 7.28014C10.0832 7.3505 10.0936 7.42089 10.1174 7.48708C10.1413 7.55328 10.1781 7.61394 10.2256 7.66543C10.2731 7.71692 10.3304 7.75819 10.394 7.78678C10.4577 7.81537 10.5263 7.83069 10.5959 7.83182C11.0292 7.8549 11.3059 7.98707 11.48 8.16434C11.6551 8.34265 11.7857 8.62901 11.8096 9.07691C11.8109 9.14729 11.8261 9.21669 11.8545 9.28097C11.8829 9.34525 11.9237 9.40309 11.9746 9.45105C12.0255 9.49902 12.0855 9.53611 12.1508 9.56014C12.2162 9.58416 12.2857 9.59462 12.3552 9.59088C12.4246 9.58715 12.4926 9.5693 12.5551 9.53841C12.6176 9.50751 12.6733 9.4642 12.7189 9.41105C12.7645 9.3579 12.7991 9.296 12.8206 9.22904C12.842 9.16209 12.85 9.09144 12.8439 9.02131C12.8107 8.39195 12.6159 7.83602 12.2169 7.42694C11.8158 7.01785 11.2696 6.81856 10.6498 6.78499Z" fill="#665CA7"/>
<path fill-rule="evenodd" clip-rule="evenodd" d="M4.99214 0.559576C8.29003 -0.186525 11.71 -0.186525 15.0079 0.559576L15.3592 0.638246C16.3233 0.856372 17.2087 1.34074 17.9171 2.03755C18.6256 2.73435 19.1292 3.61629 19.3722 4.58538C20.2093 7.92402 20.2093 11.4214 19.3722 14.76C19.1292 15.7291 18.6256 16.6111 17.9171 17.3079C17.2087 18.0047 16.3233 18.489 15.3592 18.7072L15.0069 18.7858C12.9413 19.2533 10.8219 19.4295 8.70866 19.3092L5.9591 21.7994C5.85544 21.8933 5.72876 21.9574 5.5923 21.9849C5.45584 22.0124 5.31459 22.0023 5.1833 21.9556C5.052 21.909 4.93548 21.8276 4.84589 21.7199C4.7563 21.6121 4.69692 21.482 4.67396 21.3431L4.21898 18.5928C3.34652 18.3181 2.55827 17.8214 1.92955 17.1504C1.30083 16.4794 0.852653 15.6564 0.627861 14.76C-0.209287 11.4214 -0.209287 7.92401 0.627861 4.58538C0.870813 3.61629 1.37448 2.73435 2.0829 2.03755C2.79131 1.34074 3.67674 0.856372 4.6408 0.638246L4.99214 0.559576ZM14.669 2.09416C11.5943 1.39852 8.40575 1.39852 5.33104 2.09416L4.97866 2.17388C4.29539 2.32876 3.66789 2.67229 3.16587 3.16631C2.66385 3.66033 2.30694 4.28552 2.13478 4.97243C1.36133 8.05706 1.36133 11.2883 2.13478 14.373C2.30702 15.06 2.66409 15.6853 3.1663 16.1793C3.66852 16.6734 4.29623 17.0168 4.9797 17.1715L5.07298 17.1925C5.22387 17.2267 5.36127 17.3056 5.46761 17.4192C5.57395 17.5328 5.64439 17.6759 5.66994 17.8302L5.97464 19.6743L7.91478 17.9173C7.99226 17.8469 8.08291 17.793 8.18137 17.7588C8.27982 17.7246 8.38406 17.7107 8.48791 17.718C10.5597 17.8668 12.6419 17.7095 14.669 17.2512L15.0203 17.1715C15.7038 17.0168 16.3315 16.6734 16.8337 16.1793C17.3359 15.6853 17.693 15.06 17.8652 14.373C18.6384 11.2891 18.6384 8.05735 17.8652 4.97243C17.693 4.28538 17.3359 3.66011 16.8337 3.16607C16.3315 2.67204 15.7038 2.32859 15.0203 2.17388L14.669 2.09416Z" fill="#665CA7"/>
</svg>
